<mxfile host="app.diagrams.net" modified="2022-03-09T08:32:20.411Z" agent="5.0 (Windows NT 10.0; Win64; x64) AppleWebKit/537.36 (KHTML, like Gecko) Chrome/98.0.4758.102 Safari/537.36" etag="W8Mi5qXKyJXbsvmsmhZz" version="16.6.4" type="github" pages="5">
  <diagram id="SDw0INoxKuEJ9bXSPkrw" name="Page-1">
    <mxGraphModel dx="1422" dy="762" grid="0" gridSize="10" guides="1" tooltips="1" connect="1" arrows="1" fold="1" page="1" pageScale="1" pageWidth="1169" pageHeight="827" math="0" shadow="0">
      <root>
        <mxCell id="0" />
        <mxCell id="1" parent="0" />
        <mxCell id="wwNfCJCVxKqPGhFZz3Lf-3" style="edgeStyle=orthogonalEdgeStyle;rounded=0;orthogonalLoop=1;jettySize=auto;html=1;exitX=0.5;exitY=1;exitDx=0;exitDy=0;" edge="1" parent="1" source="wwNfCJCVxKqPGhFZz3Lf-1" target="wwNfCJCVxKqPGhFZz3Lf-2">
          <mxGeometry relative="1" as="geometry" />
        </mxCell>
        <mxCell id="wwNfCJCVxKqPGhFZz3Lf-1" value="客户端打开搜索，出现热搜列表、主播排行榜等" style="rounded=1;whiteSpace=wrap;html=1;" vertex="1" parent="1">
          <mxGeometry x="538" y="78" width="120" height="60" as="geometry" />
        </mxCell>
        <mxCell id="wwNfCJCVxKqPGhFZz3Lf-5" style="edgeStyle=orthogonalEdgeStyle;rounded=0;orthogonalLoop=1;jettySize=auto;html=1;exitX=0.5;exitY=1;exitDx=0;exitDy=0;" edge="1" parent="1" source="wwNfCJCVxKqPGhFZz3Lf-2" target="wwNfCJCVxKqPGhFZz3Lf-4">
          <mxGeometry relative="1" as="geometry" />
        </mxCell>
        <mxCell id="wwNfCJCVxKqPGhFZz3Lf-2" value="客户端前置摄像头采集人脸信息和跟踪人眼" style="rounded=1;whiteSpace=wrap;html=1;" vertex="1" parent="1">
          <mxGeometry x="538" y="199" width="120" height="60" as="geometry" />
        </mxCell>
        <mxCell id="wwNfCJCVxKqPGhFZz3Lf-9" style="edgeStyle=orthogonalEdgeStyle;rounded=0;orthogonalLoop=1;jettySize=auto;html=1;exitX=0.5;exitY=1;exitDx=0;exitDy=0;entryX=0.5;entryY=0;entryDx=0;entryDy=0;" edge="1" parent="1" source="wwNfCJCVxKqPGhFZz3Lf-4" target="wwNfCJCVxKqPGhFZz3Lf-6">
          <mxGeometry relative="1" as="geometry" />
        </mxCell>
        <mxCell id="wwNfCJCVxKqPGhFZz3Lf-4" value="当人眼和热搜词条位置重合，进行滚动词条以及倒计时" style="rounded=1;whiteSpace=wrap;html=1;" vertex="1" parent="1">
          <mxGeometry x="538" y="305" width="120" height="60" as="geometry" />
        </mxCell>
        <mxCell id="wwNfCJCVxKqPGhFZz3Lf-12" style="edgeStyle=orthogonalEdgeStyle;rounded=0;orthogonalLoop=1;jettySize=auto;html=1;exitX=0.5;exitY=1;exitDx=0;exitDy=0;" edge="1" parent="1" source="wwNfCJCVxKqPGhFZz3Lf-6" target="wwNfCJCVxKqPGhFZz3Lf-10">
          <mxGeometry relative="1" as="geometry" />
        </mxCell>
        <mxCell id="wwNfCJCVxKqPGhFZz3Lf-14" style="edgeStyle=orthogonalEdgeStyle;rounded=0;orthogonalLoop=1;jettySize=auto;html=1;exitX=0.5;exitY=1;exitDx=0;exitDy=0;" edge="1" parent="1" source="wwNfCJCVxKqPGhFZz3Lf-6" target="wwNfCJCVxKqPGhFZz3Lf-13">
          <mxGeometry relative="1" as="geometry" />
        </mxCell>
        <mxCell id="wwNfCJCVxKqPGhFZz3Lf-6" value="倒计时到达后，客户端判断是否主播信息，并请求服务器当前主播是否开播" style="rounded=1;whiteSpace=wrap;html=1;" vertex="1" parent="1">
          <mxGeometry x="538" y="418" width="120" height="60" as="geometry" />
        </mxCell>
        <mxCell id="wwNfCJCVxKqPGhFZz3Lf-10" value="弹出小窗展示主播基础信息" style="rounded=1;whiteSpace=wrap;html=1;" vertex="1" parent="1">
          <mxGeometry x="410" y="536" width="120" height="60" as="geometry" />
        </mxCell>
        <mxCell id="wwNfCJCVxKqPGhFZz3Lf-13" value="弹出小窗展示主播的直播间" style="rounded=1;whiteSpace=wrap;html=1;" vertex="1" parent="1">
          <mxGeometry x="682" y="536" width="120" height="60" as="geometry" />
        </mxCell>
        <mxCell id="wwNfCJCVxKqPGhFZz3Lf-15" value="不在直播" style="text;html=1;strokeColor=none;fillColor=none;align=center;verticalAlign=middle;whiteSpace=wrap;rounded=0;" vertex="1" parent="1">
          <mxGeometry x="463" y="480" width="60" height="30" as="geometry" />
        </mxCell>
        <mxCell id="wwNfCJCVxKqPGhFZz3Lf-16" value="正在直播" style="text;html=1;strokeColor=none;fillColor=none;align=center;verticalAlign=middle;whiteSpace=wrap;rounded=0;" vertex="1" parent="1">
          <mxGeometry x="696" y="480" width="60" height="30" as="geometry" />
        </mxCell>
      </root>
    </mxGraphModel>
  </diagram>
  <diagram id="o8PYitv1RmthRhh0macD" name="Page-2">
    <mxGraphModel dx="1422" dy="762" grid="0" gridSize="10" guides="1" tooltips="1" connect="1" arrows="1" fold="1" page="1" pageScale="1" pageWidth="1169" pageHeight="827" math="0" shadow="0">
      <root>
        <mxCell id="YdnjGcba84Wu1ew6BqL8-0" />
        <mxCell id="YdnjGcba84Wu1ew6BqL8-1" parent="YdnjGcba84Wu1ew6BqL8-0" />
        <mxCell id="PtYdkxQQntYw75wpFuVA-2" style="edgeStyle=orthogonalEdgeStyle;rounded=0;orthogonalLoop=1;jettySize=auto;html=1;exitX=0.5;exitY=1;exitDx=0;exitDy=0;" edge="1" parent="YdnjGcba84Wu1ew6BqL8-1" source="PtYdkxQQntYw75wpFuVA-0" target="PtYdkxQQntYw75wpFuVA-1">
          <mxGeometry relative="1" as="geometry" />
        </mxCell>
        <mxCell id="PtYdkxQQntYw75wpFuVA-0" value="当前触发的词条是事件标签" style="rounded=1;whiteSpace=wrap;html=1;" vertex="1" parent="YdnjGcba84Wu1ew6BqL8-1">
          <mxGeometry x="525" y="67" width="120" height="60" as="geometry" />
        </mxCell>
        <mxCell id="PtYdkxQQntYw75wpFuVA-4" style="edgeStyle=orthogonalEdgeStyle;rounded=0;orthogonalLoop=1;jettySize=auto;html=1;exitX=0.5;exitY=1;exitDx=0;exitDy=0;entryX=0.5;entryY=0;entryDx=0;entryDy=0;" edge="1" parent="YdnjGcba84Wu1ew6BqL8-1" source="PtYdkxQQntYw75wpFuVA-1" target="PtYdkxQQntYw75wpFuVA-3">
          <mxGeometry relative="1" as="geometry" />
        </mxCell>
        <mxCell id="PtYdkxQQntYw75wpFuVA-1" value="请求服务器这个视频的列表，服务器会推送其中一个特征的视频" style="rounded=1;whiteSpace=wrap;html=1;" vertex="1" parent="YdnjGcba84Wu1ew6BqL8-1">
          <mxGeometry x="525" y="172" width="120" height="60" as="geometry" />
        </mxCell>
        <mxCell id="PtYdkxQQntYw75wpFuVA-6" style="edgeStyle=orthogonalEdgeStyle;rounded=0;orthogonalLoop=1;jettySize=auto;html=1;exitX=0.5;exitY=1;exitDx=0;exitDy=0;" edge="1" parent="YdnjGcba84Wu1ew6BqL8-1" source="PtYdkxQQntYw75wpFuVA-3" target="PtYdkxQQntYw75wpFuVA-5">
          <mxGeometry relative="1" as="geometry" />
        </mxCell>
        <mxCell id="PtYdkxQQntYw75wpFuVA-3" value="客户单接收到视频信息后，会用小窗的形式先展示" style="rounded=1;whiteSpace=wrap;html=1;" vertex="1" parent="YdnjGcba84Wu1ew6BqL8-1">
          <mxGeometry x="525" y="280" width="120" height="60" as="geometry" />
        </mxCell>
        <mxCell id="PtYdkxQQntYw75wpFuVA-8" style="edgeStyle=orthogonalEdgeStyle;rounded=0;orthogonalLoop=1;jettySize=auto;html=1;exitX=0.5;exitY=1;exitDx=0;exitDy=0;" edge="1" parent="YdnjGcba84Wu1ew6BqL8-1" source="PtYdkxQQntYw75wpFuVA-5" target="PtYdkxQQntYw75wpFuVA-7">
          <mxGeometry relative="1" as="geometry" />
        </mxCell>
        <mxCell id="PtYdkxQQntYw75wpFuVA-5" value="客户端统计上报用户关闭或点击进入此视频，并上传信息到服务器" style="rounded=1;whiteSpace=wrap;html=1;" vertex="1" parent="YdnjGcba84Wu1ew6BqL8-1">
          <mxGeometry x="525" y="384" width="120" height="60" as="geometry" />
        </mxCell>
        <mxCell id="PtYdkxQQntYw75wpFuVA-7" value="服务器通过大数据来优化推送视频，增强用户的点击进入" style="rounded=1;whiteSpace=wrap;html=1;" vertex="1" parent="YdnjGcba84Wu1ew6BqL8-1">
          <mxGeometry x="525" y="502" width="120" height="60" as="geometry" />
        </mxCell>
      </root>
    </mxGraphModel>
  </diagram>
  <diagram id="tv4lcj5jKkhor6gHuX6s" name="Page-3">
    <mxGraphModel dx="1422" dy="762" grid="0" gridSize="10" guides="1" tooltips="1" connect="1" arrows="1" fold="1" page="1" pageScale="1" pageWidth="1169" pageHeight="827" math="0" shadow="0">
      <root>
        <mxCell id="0HphQwAT4sakBN2Ltdcx-0" />
        <mxCell id="0HphQwAT4sakBN2Ltdcx-1" parent="0HphQwAT4sakBN2Ltdcx-0" />
        <mxCell id="0HphQwAT4sakBN2Ltdcx-4" style="edgeStyle=orthogonalEdgeStyle;rounded=0;orthogonalLoop=1;jettySize=auto;html=1;exitX=0.5;exitY=1;exitDx=0;exitDy=0;" edge="1" parent="0HphQwAT4sakBN2Ltdcx-1" source="0HphQwAT4sakBN2Ltdcx-2" target="0HphQwAT4sakBN2Ltdcx-3">
          <mxGeometry relative="1" as="geometry" />
        </mxCell>
        <mxCell id="0HphQwAT4sakBN2Ltdcx-2" value="当客户端通过小窗播放到达一定时长后，客户端前置摄像头采集是否存在人脸" style="rounded=1;whiteSpace=wrap;html=1;" vertex="1" parent="0HphQwAT4sakBN2Ltdcx-1">
          <mxGeometry x="486" y="70" width="120" height="60" as="geometry" />
        </mxCell>
        <mxCell id="0HphQwAT4sakBN2Ltdcx-6" style="edgeStyle=orthogonalEdgeStyle;rounded=0;orthogonalLoop=1;jettySize=auto;html=1;exitX=0.5;exitY=1;exitDx=0;exitDy=0;" edge="1" parent="0HphQwAT4sakBN2Ltdcx-1" source="0HphQwAT4sakBN2Ltdcx-3" target="0HphQwAT4sakBN2Ltdcx-5">
          <mxGeometry relative="1" as="geometry" />
        </mxCell>
        <mxCell id="0HphQwAT4sakBN2Ltdcx-8" style="edgeStyle=orthogonalEdgeStyle;rounded=0;orthogonalLoop=1;jettySize=auto;html=1;exitX=0.5;exitY=1;exitDx=0;exitDy=0;" edge="1" parent="0HphQwAT4sakBN2Ltdcx-1" source="0HphQwAT4sakBN2Ltdcx-3" target="0HphQwAT4sakBN2Ltdcx-7">
          <mxGeometry relative="1" as="geometry" />
        </mxCell>
        <mxCell id="0HphQwAT4sakBN2Ltdcx-3" value="播放小窗会弹出提示，N秒后自动进入视频或直播间，检测当前用户头部动作" style="rounded=1;whiteSpace=wrap;html=1;" vertex="1" parent="0HphQwAT4sakBN2Ltdcx-1">
          <mxGeometry x="486" y="195" width="120" height="60" as="geometry" />
        </mxCell>
        <mxCell id="0HphQwAT4sakBN2Ltdcx-5" value="停止倒计时并关闭视频小窗" style="rounded=1;whiteSpace=wrap;html=1;" vertex="1" parent="0HphQwAT4sakBN2Ltdcx-1">
          <mxGeometry x="378" y="328" width="120" height="60" as="geometry" />
        </mxCell>
        <mxCell id="0HphQwAT4sakBN2Ltdcx-7" value="停止倒计时进入视频或直播间" style="rounded=1;whiteSpace=wrap;html=1;" vertex="1" parent="0HphQwAT4sakBN2Ltdcx-1">
          <mxGeometry x="597" y="328" width="120" height="60" as="geometry" />
        </mxCell>
        <mxCell id="0HphQwAT4sakBN2Ltdcx-10" value="用户点头" style="text;html=1;strokeColor=none;fillColor=none;align=center;verticalAlign=middle;whiteSpace=wrap;rounded=0;" vertex="1" parent="0HphQwAT4sakBN2Ltdcx-1">
          <mxGeometry x="608" y="259" width="60" height="30" as="geometry" />
        </mxCell>
        <mxCell id="0HphQwAT4sakBN2Ltdcx-11" value="用户摇头" style="text;html=1;strokeColor=none;fillColor=none;align=center;verticalAlign=middle;whiteSpace=wrap;rounded=0;" vertex="1" parent="0HphQwAT4sakBN2Ltdcx-1">
          <mxGeometry x="413" y="259" width="60" height="30" as="geometry" />
        </mxCell>
      </root>
    </mxGraphModel>
  </diagram>
  <diagram id="q5jVzTSUZbFCYklM_oi7" name="Page-4">
    <mxGraphModel dx="1422" dy="762" grid="0" gridSize="10" guides="1" tooltips="1" connect="1" arrows="1" fold="1" page="1" pageScale="1" pageWidth="1169" pageHeight="827" math="0" shadow="0">
      <root>
        <mxCell id="0FmGzUp1E95OEGTIpFHn-0" />
        <mxCell id="0FmGzUp1E95OEGTIpFHn-1" parent="0FmGzUp1E95OEGTIpFHn-0" />
        <mxCell id="UCK4cCyWFR8A_xUsWSTf-3" style="edgeStyle=orthogonalEdgeStyle;rounded=0;orthogonalLoop=1;jettySize=auto;html=1;exitX=0.5;exitY=1;exitDx=0;exitDy=0;" edge="1" parent="0FmGzUp1E95OEGTIpFHn-1" source="UCK4cCyWFR8A_xUsWSTf-0" target="UCK4cCyWFR8A_xUsWSTf-2">
          <mxGeometry relative="1" as="geometry" />
        </mxCell>
        <mxCell id="UCK4cCyWFR8A_xUsWSTf-0" value="当客户端触发的热搜关键字有人物名称" style="rounded=1;whiteSpace=wrap;html=1;" vertex="1" parent="0FmGzUp1E95OEGTIpFHn-1">
          <mxGeometry x="486" y="70" width="120" height="60" as="geometry" />
        </mxCell>
        <mxCell id="UCK4cCyWFR8A_xUsWSTf-4" style="edgeStyle=orthogonalEdgeStyle;rounded=0;orthogonalLoop=1;jettySize=auto;html=1;exitX=0.5;exitY=1;exitDx=0;exitDy=0;" edge="1" parent="0FmGzUp1E95OEGTIpFHn-1" source="UCK4cCyWFR8A_xUsWSTf-1" target="UCK4cCyWFR8A_xUsWSTf-2">
          <mxGeometry relative="1" as="geometry" />
        </mxCell>
        <mxCell id="UCK4cCyWFR8A_xUsWSTf-1" value="客户端正在展示视频小窗" style="rounded=1;whiteSpace=wrap;html=1;" vertex="1" parent="0FmGzUp1E95OEGTIpFHn-1">
          <mxGeometry x="702" y="70" width="120" height="60" as="geometry" />
        </mxCell>
        <mxCell id="UCK4cCyWFR8A_xUsWSTf-9" style="edgeStyle=orthogonalEdgeStyle;rounded=0;orthogonalLoop=1;jettySize=auto;html=1;exitX=0.5;exitY=1;exitDx=0;exitDy=0;" edge="1" parent="0FmGzUp1E95OEGTIpFHn-1" source="UCK4cCyWFR8A_xUsWSTf-2" target="UCK4cCyWFR8A_xUsWSTf-8">
          <mxGeometry relative="1" as="geometry" />
        </mxCell>
        <mxCell id="UCK4cCyWFR8A_xUsWSTf-2" value="客户端通过人脸识别网络识别视频内是否用对应的人物脸部" style="rounded=1;whiteSpace=wrap;html=1;" vertex="1" parent="0FmGzUp1E95OEGTIpFHn-1">
          <mxGeometry x="597" y="191" width="120" height="60" as="geometry" />
        </mxCell>
        <mxCell id="UCK4cCyWFR8A_xUsWSTf-5" value="客户端接收到人物信息后，在视频小窗下方会展示对应的人物的信息小窗" style="rounded=1;whiteSpace=wrap;html=1;" vertex="1" parent="0FmGzUp1E95OEGTIpFHn-1">
          <mxGeometry x="597" y="436" width="120" height="60" as="geometry" />
        </mxCell>
        <mxCell id="UCK4cCyWFR8A_xUsWSTf-10" style="edgeStyle=orthogonalEdgeStyle;rounded=0;orthogonalLoop=1;jettySize=auto;html=1;exitX=0.5;exitY=1;exitDx=0;exitDy=0;" edge="1" parent="0FmGzUp1E95OEGTIpFHn-1" source="UCK4cCyWFR8A_xUsWSTf-8" target="UCK4cCyWFR8A_xUsWSTf-5">
          <mxGeometry relative="1" as="geometry" />
        </mxCell>
        <mxCell id="UCK4cCyWFR8A_xUsWSTf-8" value="&lt;span&gt;当人物脸部出现后，客户端请求服务器下发人物信息&lt;/span&gt;" style="rounded=1;whiteSpace=wrap;html=1;" vertex="1" parent="0FmGzUp1E95OEGTIpFHn-1">
          <mxGeometry x="597" y="321" width="120" height="60" as="geometry" />
        </mxCell>
        <mxCell id="UCK4cCyWFR8A_xUsWSTf-12" style="edgeStyle=orthogonalEdgeStyle;rounded=0;orthogonalLoop=1;jettySize=auto;html=1;exitX=0;exitY=0.5;exitDx=0;exitDy=0;" edge="1" parent="0FmGzUp1E95OEGTIpFHn-1" source="UCK4cCyWFR8A_xUsWSTf-11" target="UCK4cCyWFR8A_xUsWSTf-8">
          <mxGeometry relative="1" as="geometry" />
        </mxCell>
        <mxCell id="UCK4cCyWFR8A_xUsWSTf-11" value="&lt;span&gt;wiki或百度知道等信息网站爬取，对应的人物信息&lt;/span&gt;" style="rounded=1;whiteSpace=wrap;html=1;" vertex="1" parent="0FmGzUp1E95OEGTIpFHn-1">
          <mxGeometry x="812" y="321" width="120" height="60" as="geometry" />
        </mxCell>
      </root>
    </mxGraphModel>
  </diagram>
  <diagram id="FC8KtJMfL5xR-fkVZ7_z" name="Page-5">
    <mxGraphModel dx="1422" dy="762" grid="0" gridSize="10" guides="1" tooltips="1" connect="1" arrows="1" fold="1" page="1" pageScale="1" pageWidth="1169" pageHeight="827" math="0" shadow="0">
      <root>
        <mxCell id="_Hi-pkQ-nxff0jIZ4pXv-0" />
        <mxCell id="_Hi-pkQ-nxff0jIZ4pXv-1" parent="_Hi-pkQ-nxff0jIZ4pXv-0" />
        <mxCell id="_Hi-pkQ-nxff0jIZ4pXv-2" value="" style="endArrow=classic;html=1;rounded=0;" edge="1" parent="_Hi-pkQ-nxff0jIZ4pXv-1">
          <mxGeometry width="50" height="50" relative="1" as="geometry">
            <mxPoint x="301" y="269" as="sourcePoint" />
            <mxPoint x="590" y="266" as="targetPoint" />
          </mxGeometry>
        </mxCell>
        <mxCell id="_Hi-pkQ-nxff0jIZ4pXv-3" value="关键帧" style="text;html=1;strokeColor=none;fillColor=none;align=center;verticalAlign=middle;whiteSpace=wrap;rounded=0;" vertex="1" parent="_Hi-pkQ-nxff0jIZ4pXv-1">
          <mxGeometry x="542" y="210" width="60" height="30" as="geometry" />
        </mxCell>
        <mxCell id="_Hi-pkQ-nxff0jIZ4pXv-4" value="第一阶段视频" style="text;html=1;strokeColor=none;fillColor=none;align=center;verticalAlign=middle;whiteSpace=wrap;rounded=0;" vertex="1" parent="_Hi-pkQ-nxff0jIZ4pXv-1">
          <mxGeometry x="413" y="285" width="117" height="30" as="geometry" />
        </mxCell>
        <mxCell id="_Hi-pkQ-nxff0jIZ4pXv-5" value="" style="endArrow=classic;html=1;rounded=0;" edge="1" parent="_Hi-pkQ-nxff0jIZ4pXv-1">
          <mxGeometry width="50" height="50" relative="1" as="geometry">
            <mxPoint x="590" y="266" as="sourcePoint" />
            <mxPoint x="726" y="266" as="targetPoint" />
          </mxGeometry>
        </mxCell>
        <mxCell id="_Hi-pkQ-nxff0jIZ4pXv-6" value="" style="endArrow=classic;html=1;rounded=0;" edge="1" parent="_Hi-pkQ-nxff0jIZ4pXv-1">
          <mxGeometry width="50" height="50" relative="1" as="geometry">
            <mxPoint x="589" y="392" as="sourcePoint" />
            <mxPoint x="724" y="392" as="targetPoint" />
          </mxGeometry>
        </mxCell>
        <mxCell id="_Hi-pkQ-nxff0jIZ4pXv-7" value="结果1视频" style="text;html=1;strokeColor=none;fillColor=none;align=center;verticalAlign=middle;whiteSpace=wrap;rounded=0;" vertex="1" parent="_Hi-pkQ-nxff0jIZ4pXv-1">
          <mxGeometry x="631" y="212" width="60" height="30" as="geometry" />
        </mxCell>
        <mxCell id="_Hi-pkQ-nxff0jIZ4pXv-8" value="结果2视频" style="text;html=1;strokeColor=none;fillColor=none;align=center;verticalAlign=middle;whiteSpace=wrap;rounded=0;" vertex="1" parent="_Hi-pkQ-nxff0jIZ4pXv-1">
          <mxGeometry x="623" y="353" width="60" height="30" as="geometry" />
        </mxCell>
        <mxCell id="_Hi-pkQ-nxff0jIZ4pXv-9" value="" style="endArrow=classic;html=1;rounded=0;" edge="1" parent="_Hi-pkQ-nxff0jIZ4pXv-1">
          <mxGeometry width="50" height="50" relative="1" as="geometry">
            <mxPoint x="213" y="607" as="sourcePoint" />
            <mxPoint x="502" y="604" as="targetPoint" />
          </mxGeometry>
        </mxCell>
        <mxCell id="_Hi-pkQ-nxff0jIZ4pXv-10" value="关键帧" style="text;html=1;strokeColor=none;fillColor=none;align=center;verticalAlign=middle;whiteSpace=wrap;rounded=0;" vertex="1" parent="_Hi-pkQ-nxff0jIZ4pXv-1">
          <mxGeometry x="448" y="564" width="60" height="30" as="geometry" />
        </mxCell>
        <mxCell id="_Hi-pkQ-nxff0jIZ4pXv-11" value="第一阶段视频" style="text;html=1;strokeColor=none;fillColor=none;align=center;verticalAlign=middle;whiteSpace=wrap;rounded=0;" vertex="1" parent="_Hi-pkQ-nxff0jIZ4pXv-1">
          <mxGeometry x="279" y="629" width="117" height="30" as="geometry" />
        </mxCell>
        <mxCell id="_Hi-pkQ-nxff0jIZ4pXv-12" value="" style="endArrow=classic;html=1;rounded=0;" edge="1" parent="_Hi-pkQ-nxff0jIZ4pXv-1">
          <mxGeometry width="50" height="50" relative="1" as="geometry">
            <mxPoint x="504" y="605" as="sourcePoint" />
            <mxPoint x="640" y="605" as="targetPoint" />
          </mxGeometry>
        </mxCell>
        <mxCell id="_Hi-pkQ-nxff0jIZ4pXv-13" value="" style="endArrow=classic;html=1;rounded=0;" edge="1" parent="_Hi-pkQ-nxff0jIZ4pXv-1">
          <mxGeometry width="50" height="50" relative="1" as="geometry">
            <mxPoint x="639" y="606" as="sourcePoint" />
            <mxPoint x="774" y="606" as="targetPoint" />
          </mxGeometry>
        </mxCell>
        <mxCell id="_Hi-pkQ-nxff0jIZ4pXv-14" value="结果1视频" style="text;html=1;strokeColor=none;fillColor=none;align=center;verticalAlign=middle;whiteSpace=wrap;rounded=0;" vertex="1" parent="_Hi-pkQ-nxff0jIZ4pXv-1">
          <mxGeometry x="533" y="566" width="60" height="30" as="geometry" />
        </mxCell>
        <mxCell id="_Hi-pkQ-nxff0jIZ4pXv-15" value="结果2视频" style="text;html=1;strokeColor=none;fillColor=none;align=center;verticalAlign=middle;whiteSpace=wrap;rounded=0;" vertex="1" parent="_Hi-pkQ-nxff0jIZ4pXv-1">
          <mxGeometry x="670" y="568" width="60" height="30" as="geometry" />
        </mxCell>
        <mxCell id="_Hi-pkQ-nxff0jIZ4pXv-16" value="" style="shape=flexArrow;endArrow=classic;html=1;rounded=0;" edge="1" parent="_Hi-pkQ-nxff0jIZ4pXv-1">
          <mxGeometry width="50" height="50" relative="1" as="geometry">
            <mxPoint x="504" y="440" as="sourcePoint" />
            <mxPoint x="504" y="524" as="targetPoint" />
          </mxGeometry>
        </mxCell>
        <mxCell id="_Hi-pkQ-nxff0jIZ4pXv-18" value="" style="endArrow=classic;html=1;rounded=0;" edge="1" parent="_Hi-pkQ-nxff0jIZ4pXv-1">
          <mxGeometry width="50" height="50" relative="1" as="geometry">
            <mxPoint x="294" y="394" as="sourcePoint" />
            <mxPoint x="588" y="392" as="targetPoint" />
          </mxGeometry>
        </mxCell>
        <mxCell id="_Hi-pkQ-nxff0jIZ4pXv-19" value="第一阶段视频" style="text;html=1;strokeColor=none;fillColor=none;align=center;verticalAlign=middle;whiteSpace=wrap;rounded=0;" vertex="1" parent="_Hi-pkQ-nxff0jIZ4pXv-1">
          <mxGeometry x="398" y="402" width="117" height="30" as="geometry" />
        </mxCell>
        <mxCell id="_Hi-pkQ-nxff0jIZ4pXv-20" value="关键帧" style="text;html=1;strokeColor=none;fillColor=none;align=center;verticalAlign=middle;whiteSpace=wrap;rounded=0;" vertex="1" parent="_Hi-pkQ-nxff0jIZ4pXv-1">
          <mxGeometry x="538" y="349" width="60" height="30" as="geometry" />
        </mxCell>
        <mxCell id="_Hi-pkQ-nxff0jIZ4pXv-21" value="" style="shape=flexArrow;endArrow=classic;html=1;rounded=0;" edge="1" parent="_Hi-pkQ-nxff0jIZ4pXv-1">
          <mxGeometry width="50" height="50" relative="1" as="geometry">
            <mxPoint x="616" y="519" as="sourcePoint" />
            <mxPoint x="616" y="432" as="targetPoint" />
          </mxGeometry>
        </mxCell>
        <mxCell id="_Hi-pkQ-nxff0jIZ4pXv-22" value="编码" style="text;html=1;strokeColor=none;fillColor=none;align=center;verticalAlign=middle;whiteSpace=wrap;rounded=0;" vertex="1" parent="_Hi-pkQ-nxff0jIZ4pXv-1">
          <mxGeometry x="419" y="472" width="60" height="30" as="geometry" />
        </mxCell>
        <mxCell id="_Hi-pkQ-nxff0jIZ4pXv-23" value="解码" style="text;html=1;strokeColor=none;fillColor=none;align=center;verticalAlign=middle;whiteSpace=wrap;rounded=0;" vertex="1" parent="_Hi-pkQ-nxff0jIZ4pXv-1">
          <mxGeometry x="637" y="476" width="60" height="30" as="geometry" />
        </mxCell>
      </root>
    </mxGraphModel>
  </diagram>
</mxfile>
